<svg width="96" height="96" viewBox="0 0 96 96" fill="none" xmlns="http://www.w3.org/2000/svg">
<path d="M16 78V18C16 15.3478 17.0536 12.8043 18.9289 10.9289C20.8043 9.05357 23.3478 8 26 8H76C77.0609 8 78.0783 8.42143 78.8284 9.17157C79.5786 9.92172 80 10.9391 80 12V84C80 85.0609 79.5786 86.0783 78.8284 86.8284C78.0783 87.5786 77.0609 88 76 88H26C23.3478 88 20.8043 86.9464 18.9289 85.0711C17.0536 83.1957 16 80.6522 16 78ZM16 78C16 75.3478 17.0536 72.8043 18.9289 70.9289C20.8043 69.0536 23.3478 68 26 68H80" stroke="#445CFD" stroke-width="5" stroke-linecap="round" stroke-linejoin="round"/>
</svg>
