<svg width="96" height="96" viewBox="0 0 96 96" fill="none" xmlns="http://www.w3.org/2000/svg">
<path d="M64 12H20C17.8783 12 15.8434 12.8429 14.3431 14.3431C12.8429 15.8434 12 17.8783 12 20V76C12 78.1217 12.8429 80.1566 14.3431 81.6569C15.8434 83.1571 17.8783 84 20 84H76C78.1217 84 80.1566 83.1571 81.6569 81.6569C83.1571 80.1566 84 78.1217 84 76V32L64 12Z" stroke="#445CFD" stroke-width="5" stroke-linecap="round" stroke-linejoin="round"/>
<path d="M60 12V28C60 30.1217 60.8429 32.1566 62.3431 33.6569C63.8434 35.1571 65.8783 36 68 36H84" stroke="#445CFD" stroke-width="5" stroke-linecap="round" stroke-linejoin="round"/>
</svg>
