<svg width="96" height="96" viewBox="0 0 96 96" fill="none" xmlns="http://www.w3.org/2000/svg">
<path d="M40 31C40.001 30.4672 40.1439 29.9442 40.414 29.4849C40.6841 29.0256 41.0717 28.6465 41.5368 28.3866C42.002 28.1267 42.528 27.9954 43.0607 28.0062C43.5935 28.017 44.1137 28.1695 44.568 28.448L59.224 37.444C59.6608 37.7124 60.0215 38.0883 60.2718 38.5357C60.522 38.9832 60.6534 39.4873 60.6534 40C60.6534 40.5127 60.522 41.0168 60.2718 41.4643C60.0215 41.9117 59.6608 42.2876 59.224 42.556L44.568 51.556C44.1132 51.8349 43.5922 51.9874 43.0587 51.9978C42.5253 52.0083 41.9988 51.8763 41.5334 51.6154C41.0679 51.3546 40.6805 50.9744 40.411 50.514C40.1414 50.0535 39.9996 49.5295 40 48.996V31Z" stroke="#445CFD" stroke-width="5" stroke-linecap="round" stroke-linejoin="round"/>
<path d="M28 84H68" stroke="#445CFD" stroke-width="5" stroke-linecap="round" stroke-linejoin="round"/>
<path d="M80 12H16C11.5817 12 8 15.5817 8 20V60C8 64.4183 11.5817 68 16 68H80C84.4183 68 88 64.4183 88 60V20C88 15.5817 84.4183 12 80 12Z" stroke="#445CFD" stroke-width="5" stroke-linecap="round" stroke-linejoin="round"/>
</svg>
