<svg width="96" height="103" viewBox="0 0 96 103" fill="none" xmlns="http://www.w3.org/2000/svg">
<path d="M16 94.4167H80C82.1217 94.4167 84.1566 93.5124 85.6568 91.9027C87.1571 90.293 88 88.1098 88 85.8333V17.1667C88 14.8902 87.1571 12.707 85.6568 11.0973C84.1566 9.48766 82.1217 8.58334 80 8.58334H32C29.8783 8.58334 27.8434 9.48766 26.3431 11.0973C24.8429 12.707 24 14.8902 24 17.1667V85.8333C24 88.1098 23.1571 90.293 21.6569 91.9027C20.1566 93.5124 18.1217 94.4167 16 94.4167ZM16 94.4167C13.8783 94.4167 11.8434 93.5124 10.3431 91.9027C8.84285 90.293 8 88.1098 8 85.8333V47.2083C8 42.4875 11.6 38.625 16 38.625H24" stroke="white" stroke-width="5" stroke-linecap="round" stroke-linejoin="round"/>
<path d="M72 60.0833H40" stroke="white" stroke-width="5" stroke-linecap="round" stroke-linejoin="round"/>
<path d="M60 77.25H40" stroke="white" stroke-width="5" stroke-linecap="round" stroke-linejoin="round"/>
<path d="M40 25.75H72V42.9167H40V25.75Z" stroke="white" stroke-width="5" stroke-linecap="round" stroke-linejoin="round"/>
</svg>
